<svg xmlns="http://www.w3.org/2000/svg" version="1.1" xmlns:xlink="http://www.w3.org/1999/xlink"
     xmlns:svgjs="http://svgjs.dev/svgjs" width="1440"
     height="560" preserveAspectRatio="none" viewBox="0 0 1440 560">
  <g mask="url(&quot;#SvgjsMask1012&quot;)" fill="none">
    <path d="M140 108.89C118.04 109.67 104.26 122.27 104.26 140C104.26 163.28 113.85 189.9 140 190.91C201.72 193.29 209.83 168.26 280 146.77C292.96 142.8 306.25 143.27 306.25 140C306.25 136.75 293.26 136.21 280 133.73C210.14 120.66 205.91 106.54 140 108.89" stroke="rgba(0, 70, 100, 1)" stroke-width="2"></path>
    <path d="M396.36 0C423.55 13.59 400.34 39.77 420 70C445.86 109.77 454.88 103.93 487.41 140C524.88 181.54 532.6 225.22 560 225.22C581.79 225.22 567.54 180.37 585.79 140C618.45 67.76 615.75 56.47 661.82 0C672.86 -13.53 680.91 0 700 0C770 0 770 0 840 0C910 0 910 0 980 0C1031.43 0 1056.23 -29.4 1082.86 0C1119.63 40.6 1091.46 71.09 1106.79 140C1110.03 154.55 1106.53 165.62 1120 166.92C1183.13 172.99 1189.88 156.96 1260 154.74C1329.88 152.53 1335.02 164.51 1400 158.06C1409.26 157.14 1405.82 149.6 1408.48 140C1427.7 70.57 1404.29 42 1443.75 0C1470.05 -28 1520.39 -28.52 1540 0C1568.52 41.48 1540 70 1540 140C1540 210 1540 210 1540 280C1540 331.34 1557.88 341.32 1540 382.67C1527.61 411.32 1479.46 397.79 1479.46 420C1479.46 446.73 1524.3 444.23 1540 480.54C1554.57 514.23 1565.34 545.61 1540 560C1495.34 585.34 1470 560 1400 560C1330 560 1330 560 1260 560C1190 560 1190 560 1120 560C1064.32 560 1060.12 570.3 1008.64 560C990.12 556.3 997.92 540.22 980 532C913.6 501.53 906.11 475.44 840 482.63C777.31 489.44 782.79 526.63 722.4 560C712.79 565.31 711.2 560 700 560C630 560 630 560 560 560C490 560 490 560 420 560C350 560 350 560 280 560C210 560 210 560 140 560C70 560 40.25 589.75 0 560C-29.75 538.01 -29.64 481.84 0 456.52C40.36 422.05 74.7 456 140 440.42C151.23 437.74 153.07 430.91 153.07 420C153.07 403.2 151.46 399.45 140 385C95.93 329.45 93.7 329.35 42 280C23.7 262.53 6.58 273.3 0 251.36C-14.42 203.3 0 195.68 0 140C0 70 -35 35 0 0C35 -35 70 0 140 0C210 0 210 0 280 0C338.18 0 353.55 -21.41 396.36 0" stroke="rgba(0, 70, 100, 1)" stroke-width="2"></path>
    <path d="M1260 112.9C1216.23 112.9 1167.89 34.59 1167.89 0C1167.89 -21.86 1213.95 0 1260 0C1298.89 0 1337.78 -20.43 1337.78 0C1337.78 36.02 1301.18 112.9 1260 112.9" stroke="rgba(0, 70, 100, 1)" stroke-width="2"></path>
    <path d="M840 259C801.97 259 756 269.5 756 280C756 290.5 801.97 301 840 301C851.21 301 854.48 290.5 854.48 280C854.48 269.5 851.21 259 840 259" stroke="rgba(0, 70, 100, 1)" stroke-width="2"></path>
    <path d="M420 382.5C400.31 391.28 394.7 400.4 394.7 420C394.7 444.76 398.19 454.42 420 471.22C480.84 518.06 514.52 561.39 560 547.27C597.02 535.78 585 482.8 585 420C585 382.33 588.86 352.88 560 346.32C506.36 334.13 482.96 354.44 420 382.5" stroke="rgba(0, 70, 100, 1)" stroke-width="2"></path>
    <path d="M140 44.07C77.19 58.76 83.71 90.8 29.79 140C13.71 154.68 8.61 171.82 0 171.82C-6.29 171.82 0 155.91 0 140C0 70 -35 35 0 0C35 -35 70 0 140 0C210 0 210 0 280 0C315.46 0 350.91 -16.15 350.91 0C350.91 24.6 325.04 72.08 280 81.49C219.58 94.11 202.3 29.5 140 44.07" stroke="rgba(0, 70, 100, 1)" stroke-width="2"></path>
    <path d="M631.84 140C631.84 96.24 658.05 86.58 700 52.2C743.47 16.58 749.8 19.71 802.67 0C819.8 -6.39 821.34 0 840 0C910 0 910 0 980 0C995.71 0 1005.96 -12.61 1011.43 0C1036.33 57.39 1041.61 70.18 1040.75 140C1039.89 210.18 985.79 237.12 1008 280C1025.42 313.63 1065.64 293.02 1120 293.02C1130.97 293.02 1128.7 285.47 1138.67 280C1198.7 247.03 1197.68 218.29 1260 216.14C1328.34 213.78 1348.65 290.37 1400 270.97C1449.41 252.3 1436.92 207.72 1461.52 140C1486.14 72.24 1467.95 54.39 1498.44 0C1507.19 -15.61 1535.24 -16.02 1540 0C1556.02 53.98 1540 70 1540 140C1540 210 1540 210 1540 280C1540 302.16 1556.83 318.72 1540 324.33C1486.83 342.05 1445.23 298.05 1400 326.67C1369.63 345.88 1412.93 382.57 1388.8 420C1342.93 491.16 1329.34 490.31 1260 543.85C1238.69 560.31 1234.5 556.89 1207.5 560C1164.5 564.96 1163.75 560 1120 560C1104.09 560 1100.34 569.19 1088.18 560C1030.34 516.3 1039.83 498.48 980 454.22C945.21 428.48 899.81 450.98 898.95 420C897.39 363.87 980.67 347.44 975.17 280C969.26 207.44 922.44 211.95 876.13 140C854.86 106.95 855.7 70 840 70C825.19 70 838.95 113.38 815.11 140C768.95 191.55 751.93 226.33 700 226.33C660.3 226.33 631.84 183.3 631.84 140" stroke="rgba(0, 70, 100, 1)" stroke-width="2"></path>
    <path d="M154.74 280C174.8 225.83 212.1 223.71 280 203.23C344.73 183.71 360.31 178.18 420 200C465.31 216.56 490 245.88 490 280C490 305.88 447.54 291.96 420 320C378.8 361.96 352.53 367.72 352.53 420C352.53 486.02 384.97 489.48 420 556.59C421.51 559.48 425.6 559.08 425.6 560C425.6 560.79 422.8 560 420 560C350 560 350 560 280 560C210 560 210 560 140 560C70 560 58.55 571.45 0 560C-11.45 557.76 -11.36 536.4 0 532.61C58.64 513.06 84.02 544.89 140 513.33C183.89 488.58 196.56 470.13 199.73 420C203.93 353.47 134.66 334.22 154.74 280" stroke="rgba(0, 70, 100, 1)" stroke-width="2"></path>
    <path d="M647.5 420C647.5 386.3 668.32 353.18 700 353.18C745.26 353.18 801.38 386.04 801.38 420C801.38 454.45 744.99 490 700 490C668.05 490 647.5 454.71 647.5 420" stroke="rgba(0, 70, 100, 1)" stroke-width="2"></path>
    <path d="M280 29.25C239.48 29.25 190.91 7.5 190.91 0C190.91 -7.13 235.45 0 280 0C292.73 0 305.45 -5.8 305.45 0C305.45 8.83 296.75 29.25 280 29.25" stroke="rgba(0, 70, 100, 1)" stroke-width="2"></path>
    <path d="M677.89 140C677.89 125.81 687.09 111.53 700 111.53C716.81 111.53 737.33 125.84 737.33 140C737.33 154.07 716.84 168 700 168C687.12 168 677.89 154.04 677.89 140" stroke="rgba(0, 70, 100, 1)" stroke-width="2"></path>
    <path d="M1514.55 140C1514.55 93.34 1533.52 46.67 1540 46.67C1546.25 46.67 1540 93.34 1540 140C1540 186.67 1546.25 233.33 1540 233.33C1533.52 233.33 1514.55 186.67 1514.55 140" stroke="rgba(0, 70, 100, 1)" stroke-width="2"></path>
    <path d="M246.84 280C250.49 262.57 262.05 259.68 280 259.68C313.63 259.68 344.93 253.25 350 280C360.11 333.41 316.97 348.82 310.36 420C303.97 488.82 335.56 506.68 324 560C320.38 576.68 302 560 280 560C241.5 560 208.79 584.11 203 560C191.99 514.11 235.19 491.61 246.4 420C257.11 351.61 233.69 342.73 246.84 280" stroke="rgba(0, 70, 100, 1)" stroke-width="2"></path>
    <path d="M1255.33 280C1257.5 278.5 1257.61 277.54 1260 277.54C1262.86 277.54 1264.64 277.11 1265.83 280C1294.04 348.34 1320.69 356.39 1318.8 420C1317.77 454.66 1296.52 464.12 1260 476.54C1197.12 497.92 1182.02 504.29 1120 487.59C1077.02 476.02 1050 450.45 1050 420C1050 393.86 1085.5 397.95 1120 374.42C1188.16 327.95 1187.5 326.94 1255.33 280" stroke="rgba(0, 70, 100, 1)" stroke-width="2"></path>
  </g>
  <defs>
    <mask id="SvgjsMask1012">
      <rect width="1440" height="560" fill="#ffffff"></rect>
    </mask>
  </defs>
</svg>